<?xml version="1.0" standalone="no"?>
<!DOCTYPE svg PUBLIC "-//W3C//DTD SVG 20010904//EN"
 "http://www.w3.org/TR/2001/REC-SVG-20010904/DTD/svg10.dtd">
<svg version="1.0" xmlns="http://www.w3.org/2000/svg"
 width="500.000000pt" height="500.000000pt" viewBox="0 0 500.000000 500.000000"
 preserveAspectRatio="xMidYMid meet">
<metadata>
Created by potrace 1.14, written by Peter Selinger 2001-2017
</metadata>
<g transform="translate(0.000000,500.000000) scale(0.100000,-0.100000)"
fill="#000000" stroke="none">
<path d="M1175 4933 c-120 -286 -271 -833 -339 -1228 -27 -156 -66 -519 -66
-610 0 -98 -5 -108 -146 -263 -73 -81 -134 -153 -134 -159 0 -28 40 -9 151 70
l115 83 13 -190 c12 -184 11 -198 -13 -386 l-25 -194 -51 -75 c-53 -77 -61
-119 -17 -87 62 44 61 45 54 -30 -14 -150 -29 -585 -24 -682 5 -95 8 -110 43
-180 33 -66 49 -85 107 -128 68 -51 234 -144 257 -144 7 0 34 -11 62 -25 52
-26 143 -45 218 -45 l44 0 -61 -62 c-67 -70 -115 -164 -134 -265 -12 -60 -7
-284 6 -315 11 -26 28 -22 21 4 -4 13 -9 70 -12 128 l-5 105 19 -42 c24 -50
113 -183 135 -201 12 -11 22 -8 52 13 21 14 44 25 51 25 7 0 20 3 30 7 14 5
16 3 11 -10 -4 -9 -10 -24 -13 -32 -4 -9 -1 -15 9 -15 8 0 17 7 21 15 3 8 24
40 47 70 47 63 109 97 207 116 73 14 237 8 271 -10 22 -12 71 -106 85 -163 6
-28 7 -28 87 -28 l80 0 -45 63 c-83 113 -232 331 -260 378 l-27 47 17 106 17
107 68 68 68 68 11 -33 c19 -57 32 -52 28 10 -1 31 -3 56 -2 56 1 0 50 -32
110 -72 60 -40 146 -91 192 -115 130 -67 166 -60 315 61 45 36 59 43 63 31 4
-8 12 -15 18 -15 15 0 47 -36 64 -70 16 -33 52 -188 52 -223 0 -43 -45 -101
-225 -285 -91 -93 -165 -172 -165 -176 0 -3 267 -6 594 -6 586 0 595 0 601 20
4 11 7 77 7 148 1 114 -2 134 -26 197 -37 97 -78 157 -169 251 l-78 82 66 -18
66 -18 81 29 c139 49 369 196 397 254 15 31 21 78 47 370 40 437 9 1349 -56
1715 -18 98 -18 111 -5 144 8 19 15 43 15 52 0 9 24 71 54 138 109 242 227
583 297 854 46 180 48 206 17 212 -13 3 -93 4 -178 4 -311 -1 -737 -100 -1233
-287 l-196 -74 -73 20 c-63 18 -103 21 -288 21 -231 0 -322 -11 -520 -61 -98
-25 -105 -25 -115 -8 -5 9 -26 38 -46 64 -20 25 -94 129 -164 231 -205 296
-304 422 -430 543 -96 94 -101 96 -120 50z m970 -1063 c264 -131 648 -417 859
-641 183 -193 317 -385 504 -719 66 -118 154 -266 197 -329 133 -198 210 -371
249 -559 14 -64 33 -151 43 -192 14 -60 17 -121 18 -305 0 -281 -1 -287 -86
-333 -58 -33 -83 -36 -61 -10 18 23 52 135 62 210 26 179 3 444 -55 651 -37
129 -84 232 -194 424 -37 65 -96 172 -131 238 -86 163 -285 479 -399 633 -61
83 -146 180 -245 278 -237 236 -412 367 -848 640 -60 37 -108 71 -108 77 0 20
79 -5 195 -63z m-140 -136 c78 -51 143 -147 269 -394 153 -303 150 -292 148
-510 -1 -102 -5 -212 -10 -245 l-8 -60 -92 184 c-51 102 -92 191 -92 198 0 7
-4 13 -10 13 -5 0 -7 -22 -3 -52 6 -60 48 -320 59 -364 13 -55 -13 -11 -114
191 -156 312 -209 440 -253 612 -21 84 -39 164 -39 178 0 13 -4 27 -10 30 -5
3 -10 0 -10 -8 0 -27 -49 -125 -79 -159 -35 -41 -124 -188 -206 -343 -32 -60
-84 -158 -116 -216 -71 -127 -105 -207 -134 -314 l-22 -80 -8 45 c-3 25 -5
154 -3 287 2 133 0 239 -4 236 -5 -2 -8 -9 -8 -14 0 -6 -36 -99 -79 -208 -44
-108 -90 -237 -102 -287 -13 -49 -26 -93 -31 -99 -11 -13 -10 178 2 315 13
137 44 326 66 393 22 68 209 309 271 350 15 11 36 30 47 44 l18 25 -33 -17
c-40 -20 -248 -171 -398 -286 -57 -44 -105 -78 -107 -76 -11 10 67 108 130
166 194 175 378 284 615 364 73 25 136 49 140 53 8 8 -66 -3 -148 -23 -55 -13
-88 -14 -235 -4 -319 21 -457 34 -449 42 8 8 232 36 508 64 72 8 207 13 300
11 l170 -2 60 -40z m-121 -646 c10 -62 34 -176 53 -253 19 -77 36 -143 36
-147 1 -4 -69 -9 -155 -12 -87 -2 -158 -3 -158 -2 0 23 191 526 200 526 3 0
14 -51 24 -112z m1153 -203 c6 -12 27 -73 46 -137 l34 -116 -116 5 c-64 3
-118 7 -120 9 -2 2 1 38 7 81 6 43 16 127 23 186 l12 108 51 -57 c28 -31 56
-67 63 -79z m-1052 -253 c6 -4 21 -41 34 -82 19 -59 115 -306 148 -379 5 -11
-1 -13 -33 -7 -152 27 -461 35 -568 15 -32 -6 -60 -9 -62 -6 -2 2 21 84 52
183 31 98 61 195 67 214 17 55 24 59 100 63 146 7 252 6 262 -1z m1091 -48
l61 -5 21 -72 c11 -40 38 -126 59 -193 l40 -121 -181 -6 c-125 -4 -195 -11
-225 -22 -24 -8 -46 -13 -48 -11 -3 2 9 100 26 218 17 117 31 217 31 221 0 7
55 5 216 -9z m419 -432 c-2 -2 -13 1 -24 8 -16 8 -21 20 -21 48 l1 37 24 -45
c12 -25 22 -46 20 -48z m-969 -265 c31 -44 67 -92 79 -106 74 -85 103 -121
108 -133 11 -32 22 11 28 115 7 109 33 274 45 286 3 3 77 8 165 10 l159 3 1
-63 c0 -83 17 -133 46 -137 14 -2 27 5 37 20 18 28 39 139 30 162 -5 13 1 16
38 16 l43 0 52 -122 c28 -68 49 -126 45 -130 -4 -4 -44 -12 -90 -18 -74 -10
-97 -8 -233 15 -164 27 -209 31 -209 15 0 -31 185 -62 365 -62 77 1 151 2 164
4 20 3 26 -3 35 -37 15 -52 30 -47 36 11 5 44 7 48 44 61 22 7 48 20 57 29 17
15 18 13 29 -28 20 -72 60 -252 60 -268 0 -37 -73 -165 -127 -222 -115 -120
-263 -199 -549 -293 -196 -65 -322 -93 -451 -101 -92 -5 -109 -3 -268 36 -331
80 -508 149 -673 263 -86 59 -139 117 -194 210 -31 53 -44 92 -64 190 -14 67
-27 131 -29 142 -3 11 9 -7 25 -40 16 -33 33 -75 36 -93 5 -23 11 -32 23 -30
13 3 17 21 22 100 3 54 8 100 11 103 3 3 21 -3 40 -15 51 -30 210 -49 326 -39
128 11 372 73 380 98 6 18 -35 13 -164 -18 -254 -62 -408 -65 -521 -10 -49 23
-63 35 -63 52 0 30 37 168 47 177 8 8 178 30 227 30 25 0 26 -2 26 -69 0 -87
14 -129 47 -137 47 -12 72 44 73 165 l0 54 118 -8 c64 -4 149 -8 187 -10 l70
-3 86 -163 c47 -90 91 -165 98 -167 15 -5 12 19 -35 289 -19 107 -34 199 -34
205 0 5 32 -51 70 -125 38 -73 95 -169 126 -214z m-1607 68 c-10 -93 -23 -213
-30 -265 -20 -173 -23 -482 -5 -595 17 -100 40 -191 54 -210 4 -6 41 -24 82
-39 41 -16 101 -42 134 -58 32 -16 93 -36 135 -44 78 -14 151 -41 151 -55 0
-4 -42 -5 -92 -2 -92 6 -95 7 -258 89 -91 45 -184 96 -206 112 -38 27 -43 37
-55 99 -10 46 -14 142 -14 298 0 194 3 249 22 350 19 102 53 377 53 425 0 14
40 73 46 67 1 -1 -6 -78 -17 -172z m2611 76 c22 -6 26 -14 31 -61 4 -30 10
-67 14 -81 6 -25 3 -28 -45 -44 -28 -9 -53 -15 -55 -13 -3 2 -8 50 -11 106
l-7 102 24 -1 c13 -1 35 -4 49 -8z m-2205 -507 c9 -31 14 -58 12 -60 -8 -9
-113 84 -141 124 -15 22 -38 66 -51 98 l-23 57 56 111 56 111 37 -192 c21
-106 45 -218 54 -249z m2432 -61 c-16 -22 -28 -14 -21 15 10 42 18 49 24 22 4
-14 2 -31 -3 -37z m-81 -39 c-3 -8 -12 -14 -21 -14 -14 0 -13 4 2 33 13 25 18
28 21 14 2 -10 1 -25 -2 -33z m-1666 -728 c0 -8 -10 -61 -22 -118 -14 -69 -22
-141 -22 -218 l-1 -115 -35 -1 c-19 -1 -69 -3 -112 -5 -42 -2 -79 -1 -83 3 -7
6 51 110 130 233 21 32 46 81 56 109 31 84 89 157 89 112z m-440 -95 c87 -57
157 -116 198 -169 l30 -37 -44 -75 c-48 -82 -51 -90 -29 -90 8 0 15 -4 15 -10
0 -16 -26 -12 -64 11 -19 11 -33 26 -30 33 7 18 -64 80 -194 170 -61 42 -114
82 -118 88 -4 5 11 28 33 49 l39 39 104 -76 c58 -43 127 -95 153 -117 26 -22
50 -37 53 -34 8 7 -114 107 -213 174 -46 31 -83 59 -83 63 0 14 26 30 50 30
14 0 59 -22 100 -49z m-235 -100 c3 -6 54 -43 113 -84 206 -143 257 -211 61
-81 -106 70 -199 148 -199 166 0 11 18 10 25 -1z m132 -164 l68 -45 -3 -96
c-3 -94 -4 -96 -28 -96 -13 0 -47 -9 -76 -20 l-53 -20 -22 27 c-12 15 -43 64
-68 108 -42 73 -46 84 -40 128 3 27 15 73 26 103 l21 55 54 -50 c29 -27 84
-70 121 -94z m117 -138 c4 -46 2 -77 -5 -92 -12 -21 -12 -21 -20 -2 -4 11 -8
55 -8 97 -1 61 2 76 13 72 8 -3 16 -30 20 -75z m96 3 c-1 -6 -69 -54 -71 -49
0 1 -3 24 -6 50 l-5 48 41 -20 c23 -12 41 -25 41 -29z"/>
<path d="M2853 1753 c15 -2 37 -2 50 0 12 2 0 4 -28 4 -27 0 -38 -2 -22 -4z"/>
<path d="M2435 1160 c29 -12 128 -12 120 0 -3 6 -36 10 -73 9 -47 0 -61 -3
-47 -9z"/>
<path d="M2030 542 c0 -22 300 -139 321 -126 5 3 9 20 8 37 -1 30 -1 30 -8 7
-5 -17 -13 -24 -27 -22 -38 7 -197 64 -241 88 -51 27 -53 27 -53 16z"/>
<path d="M2649 494 c-9 -53 -7 -54 127 -54 122 0 209 12 229 33 7 6 2 8 -15 3
-75 -18 -155 -27 -235 -24 l-90 3 -5 35 -6 35 -5 -31z"/>
<path d="M2025 53 c4 -10 10 -26 12 -35 3 -10 9 -18 14 -18 12 0 11 6 -6 40
-17 32 -32 41 -20 13z"/>
</g>
</svg>
